<?xml version="1.0" standalone="no"?>
<!DOCTYPE svg PUBLIC "-//W3C//DTD SVG 20010904//EN"
 "http://www.w3.org/TR/2001/REC-SVG-20010904/DTD/svg10.dtd">
<svg version="1.0" xmlns="http://www.w3.org/2000/svg"
 width="360.000000pt" height="360.000000pt" viewBox="0 0 360.000000 360.000000"
 preserveAspectRatio="xMidYMid meet">
<metadata>
Created by potrace 1.14, written by Peter Selinger 2001-2017
</metadata>
<g transform="translate(0.000000,360.000000) scale(0.100000,-0.100000)"
fill="#000000" stroke="none">
<path d="M2242 3566 c-84 -38 -122 -70 -122 -103 0 -13 -3 -22 -7 -22 -5 1
-10 0 -13 -1 -3 -1 -19 -3 -37 -5 -56 -6 -73 -21 -73 -65 0 -22 5 -40 11 -40
5 0 8 -4 4 -9 -3 -5 1 -15 8 -23 28 -29 57 -109 57 -158 0 -27 4 -50 10 -50 5
0 7 -6 5 -12 -3 -7 7 -37 23 -67 24 -47 37 -59 98 -92 46 -25 89 -40 123 -44
117 -12 194 -26 212 -38 18 -13 83 -97 75 -97 -5 0 79 -189 88 -197 3 -4 6
-14 6 -23 0 -10 7 -23 15 -30 8 -7 12 -16 9 -21 -3 -5 0 -17 5 -28 21 -38 -42
-78 -324 -206 -22 -10 -80 -37 -130 -60 -49 -24 -106 -46 -126 -49 -41 -7 -89
9 -89 31 0 7 -4 13 -9 13 -5 0 -9 30 -8 68 2 110 -14 285 -33 363 -6 24 -12
49 -13 54 -1 6 -5 15 -9 20 -9 14 -53 179 -50 188 1 4 -2 7 -8 7 -5 0 -10 6
-10 14 0 14 -43 101 -74 151 -11 17 -42 66 -70 110 -52 82 -196 235 -220 235
-8 0 -16 4 -18 9 -6 16 -229 122 -290 137 -114 30 -256 10 -398 -54 -25 -12
-61 -24 -80 -27 -113 -18 -227 -116 -327 -280 -21 -33 -43 -66 -50 -73 -7 -7
-13 -19 -13 -26 0 -8 -6 -19 -14 -25 -8 -7 -17 -24 -21 -39 -4 -15 -10 -29
-13 -32 -8 -6 -48 -94 -58 -130 -19 -63 -24 -125 -38 -467 -3 -57 -7 -106 -9
-110 -8 -13 -2 -326 7 -353 4 -14 9 -34 11 -45 2 -11 6 -30 9 -42 3 -13 8 -33
11 -45 17 -78 108 -192 187 -233 23 -13 27 -13 33 3 6 15 8 15 18 1 7 -8 32
-25 57 -37 87 -41 241 -34 368 19 31 13 35 12 48 -5 7 -11 10 -24 6 -30 -5 -6
-9 -21 -10 -33 0 -12 -6 -28 -11 -35 -74 -87 -123 -169 -136 -226 -3 -9 -9
-34 -14 -55 -5 -20 -10 -97 -11 -170 -1 -72 -3 -144 -5 -159 -4 -30 -32 -133
-44 -163 -25 -58 -42 -116 -36 -125 3 -5 2 -10 -4 -10 -6 0 -13 -11 -17 -25
-3 -14 -10 -25 -15 -25 -5 0 -9 -13 -9 -28 0 -37 62 -96 118 -113 47 -14 57
-25 67 -82 4 -21 24 -64 45 -96 32 -50 49 -65 123 -105 l85 -46 745 0 746 0
-6 23 c-13 55 -20 125 -18 194 3 74 3 75 49 121 25 25 46 51 46 58 0 7 12 12
28 12 47 -1 139 31 184 65 42 32 54 54 76 142 5 22 21 72 36 112 21 60 24 77
14 97 -14 31 -66 50 -122 44 -22 -3 -50 -2 -61 2 -26 10 -58 -10 -117 -72 -46
-49 -47 -50 -78 -37 l-31 14 6 90 c12 204 3 441 -19 463 -3 2 -1 13 5 24 7 13
16 17 27 13 60 -24 132 1 168 59 56 88 105 228 120 340 10 81 37 126 130 222
141 145 220 266 251 386 7 28 9 174 3 208 -3 14 -9 31 -15 39 -26 37 -199 202
-361 345 -23 20 -48 50 -56 67 -14 28 -14 35 5 82 15 40 20 76 20 154 0 90 -3
108 -27 157 -36 74 -81 111 -165 136 -39 11 -73 25 -76 30 -4 6 -70 10 -158 9
-149 -1 -153 -1 -225 -33z m-1522 -1166 c0 -5 -5 -10 -11 -10 -5 0 -7 5 -4 10
3 6 8 10 11 10 2 0 4 -4 4 -10z m-10 -24 c0 -3 -4 -8 -10 -11 -5 -3 -10 -1
-10 4 0 6 5 11 10 11 6 0 10 -2 10 -4z m554 -641 c-4 -8 -11 -12 -16 -9 -6 4
-5 10 3 15 19 12 19 11 13 -6z"/>
</g>
</svg>
